<svg width="52" height="49" viewBox="0 0 52 49" fill="none" xmlns="http://www.w3.org/2000/svg">
<path d="M47.5 25C47.5 37.9787 36.9787 48.5 24 48.5C11.0213 48.5 0.5 37.9787 0.5 25C0.5 12.0213 11.0213 1.5 24 1.5C36.9787 1.5 47.5 12.0213 47.5 25Z" fill="white" stroke="#E2E2E2"/>
<path fill-rule="evenodd" clip-rule="evenodd" d="M42.5 19C47.7467 19 52 14.7467 52 9.5C52 4.25329 47.7467 0 42.5 0C37.2533 0 33 4.25329 33 9.5C33 14.7467 37.2533 19 42.5 19Z" fill="#E2574C"/>
<path d="M45.4582 11.36V12H40.5482V11.49L43.4582 8.64C43.8249 8.28 44.0715 7.97 44.1982 7.71C44.3315 7.44333 44.3982 7.17667 44.3982 6.91C44.3982 6.49667 44.2549 6.17667 43.9682 5.95C43.6882 5.71667 43.2849 5.6 42.7582 5.6C41.9382 5.6 41.3015 5.86 40.8482 6.38L40.3382 5.94C40.6115 5.62 40.9582 5.37333 41.3782 5.2C41.8049 5.02667 42.2849 4.94 42.8182 4.94C43.5315 4.94 44.0949 5.11 44.5082 5.45C44.9282 5.78333 45.1382 6.24333 45.1382 6.83C45.1382 7.19 45.0582 7.53667 44.8982 7.87C44.7382 8.20333 44.4349 8.58667 43.9882 9.02L41.6082 11.36H45.4582Z" fill="white"/>
<path fill-rule="evenodd" clip-rule="evenodd" d="M32.5334 18.216C32.2224 17.942 30.5354 16.636 30.2194 16.356C29.9044 16.078 29.4104 16 29.0644 16H18.9714C18.6244 16 18.1304 16.078 17.8154 16.356C17.5004 16.636 15.8114 17.942 15.5024 18.216C15.1914 18.489 14.9334 18.901 15.0154 19.492C15.0984 20.08 17.0454 33.396 17.0454 33.396C17.1564 33.732 17.5294 34.006 17.8774 34.006H30.1594C30.5054 34.006 30.8804 33.732 30.9884 33.396C30.9884 33.396 32.9354 20.08 33.0194 19.492C33.1014 18.901 32.8434 18.489 32.5334 18.216ZM28.4704 22.884C28.4704 22.884 28.4224 23.251 28.3584 23.735C28.3554 23.752 28.3544 23.767 28.3514 23.784C28.3454 23.842 28.3384 23.898 28.3284 23.956C28.1364 25.189 27.4494 26.254 26.4824 26.932C25.7804 27.423 24.9324 27.711 24.0174 27.711C23.1034 27.711 22.2544 27.423 21.5524 26.932C20.5854 26.254 19.8974 25.189 19.7054 23.956C19.6974 23.898 19.6884 23.842 19.6824 23.784C19.6804 23.767 19.6784 23.752 19.6764 23.735C19.6134 23.251 19.5634 22.884 19.5634 22.884C19.5614 22.864 19.5614 22.842 19.5614 22.821C19.5614 22.801 19.5614 22.781 19.5634 22.76C19.5764 22.604 19.6414 22.463 19.7384 22.355C19.8554 22.224 20.0204 22.138 20.2054 22.13C20.2164 22.13 20.2284 22.13 20.2394 22.13C20.2504 22.13 20.2624 22.13 20.2744 22.13H20.4104C20.4214 22.13 20.4334 22.13 20.4444 22.13C20.4554 22.13 20.4674 22.13 20.4794 22.13C20.6954 22.14 20.8834 22.255 20.9994 22.423C21.0714 22.527 21.0984 22.635 21.1224 22.788C21.1224 22.792 21.1814 23.158 21.2514 23.583C21.2634 23.668 21.2774 23.755 21.2924 23.842C21.2924 23.844 21.2924 23.846 21.2924 23.848C21.4154 24.43 21.7124 24.946 22.1254 25.338C22.6224 25.808 23.2874 26.095 24.0174 26.095C24.7474 26.095 25.4124 25.808 25.9084 25.338C26.3224 24.946 26.6184 24.43 26.7414 23.848C26.7414 23.846 26.7424 23.844 26.7424 23.842C26.7574 23.755 26.7714 23.668 26.7844 23.583C26.8524 23.158 26.9104 22.792 26.9124 22.788C26.9364 22.635 26.9634 22.527 27.0344 22.423C27.1504 22.255 27.3394 22.14 27.5554 22.13C27.5674 22.13 27.5784 22.13 27.5894 22.13C27.6014 22.13 27.6134 22.13 27.6254 22.13H27.7604C27.7724 22.13 27.7834 22.13 27.7944 22.13C27.8064 22.13 27.8174 22.13 27.8304 22.13C28.0154 22.138 28.1804 22.224 28.2964 22.355C28.3934 22.463 28.4574 22.604 28.4704 22.76C28.4724 22.781 28.4734 22.801 28.4734 22.821C28.4734 22.842 28.4724 22.864 28.4704 22.884ZM30.6484 19.022C30.6444 19.023 30.6404 19.023 30.6364 19.023C30.6324 19.023 30.6294 19.023 30.6254 19.022H29.7214H28.2094H25.2074H22.8274H19.7954H18.2834H17.3814C17.3774 19.023 17.3734 19.023 17.3694 19.023C17.3654 19.023 17.3624 19.023 17.3584 19.022C17.1764 19.017 17.0314 18.864 17.0314 18.677C17.0314 18.569 17.0774 18.474 17.1534 18.411C17.1614 18.402 17.1704 18.396 17.1814 18.389L18.4234 17.26C18.4234 17.26 18.4244 17.259 18.4254 17.259C18.4504 17.238 18.4764 17.218 18.5034 17.199H18.5044C18.6534 17.097 18.8294 17.033 19.0204 17.023C19.0374 17.022 19.0544 17.021 19.0724 17.021C19.0904 17.021 19.1074 17.022 19.1244 17.023H28.9054C28.9144 17.022 28.9234 17.022 28.9314 17.022C28.9414 17.022 28.9494 17.022 28.9584 17.023C29.1594 17.028 29.3454 17.092 29.5014 17.199C29.5024 17.201 29.5034 17.202 29.5044 17.202C29.5294 17.219 29.5524 17.238 29.5754 17.256C29.5764 17.258 29.5784 17.259 29.5794 17.26L30.8074 18.378C30.8284 18.391 30.8474 18.404 30.8654 18.423C30.9334 18.484 30.9754 18.575 30.9754 18.677C30.9754 18.864 30.8304 19.017 30.6484 19.022Z" fill="#2D2D2D"/>
</svg>
